<?xml version="1.0" encoding="UTF-8" standalone="no"?>
<!-- Created with Inkscape (http://www.inkscape.org/) -->

<svg
   width="64px"
   height="64px"
   viewBox="0 0 22.577778 22.577778"
   version="1.1"
   id="svg831"
   inkscape:version="1.1.2 (b8e25be833, 2022-02-05)"
   sodipodi:docname="Export - Unblash - 64px.svg"
   inkscape:export-filename="E:\Project Design\TR Icon Design Project\Carlos - Icon Design Project\September\Done\100%\Filedline\04 - Microwave.png"
   inkscape:export-xdpi="576"
   inkscape:export-ydpi="576"
   xmlns:inkscape="http://www.inkscape.org/namespaces/inkscape"
   xmlns:sodipodi="http://sodipodi.sourceforge.net/DTD/sodipodi-0.dtd"
   xmlns="http://www.w3.org/2000/svg"
   xmlns:svg="http://www.w3.org/2000/svg"
   xmlns:rdf="http://www.w3.org/1999/02/22-rdf-syntax-ns#"
   xmlns:cc="http://creativecommons.org/ns#"
   xmlns:dc="http://purl.org/dc/elements/1.1/">
  <defs
     id="defs825">
    <pattern
       id="EMFhbasepattern"
       patternUnits="userSpaceOnUse"
       width="6"
       height="6"
       x="0"
       y="0" />
    <pattern
       id="EMFhbasepattern-9"
       patternUnits="userSpaceOnUse"
       width="6"
       height="6"
       x="0"
       y="0" />
    <pattern
       id="EMFhbasepattern-0"
       patternUnits="userSpaceOnUse"
       width="6"
       height="6"
       x="0"
       y="0" />
    <pattern
       id="EMFhbasepattern-7"
       patternUnits="userSpaceOnUse"
       width="6"
       height="6"
       x="0"
       y="0" />
    <pattern
       id="EMFhbasepattern-2"
       patternUnits="userSpaceOnUse"
       width="6"
       height="6"
       x="0"
       y="0" />
    <pattern
       id="EMFhbasepattern-98"
       patternUnits="userSpaceOnUse"
       width="6"
       height="6"
       x="0"
       y="0" />
    <pattern
       id="EMFhbasepattern-6"
       patternUnits="userSpaceOnUse"
       width="6"
       height="6"
       x="0"
       y="0" />
    <pattern
       id="EMFhbasepattern-01"
       patternUnits="userSpaceOnUse"
       width="6"
       height="6"
       x="0"
       y="0" />
    <pattern
       id="EMFhbasepattern-07"
       patternUnits="userSpaceOnUse"
       width="6"
       height="6"
       x="0"
       y="0" />
    <pattern
       id="EMFhbasepattern-8"
       patternUnits="userSpaceOnUse"
       width="6"
       height="6"
       x="0"
       y="0" />
    <pattern
       id="EMFhbasepattern-4"
       patternUnits="userSpaceOnUse"
       width="6"
       height="6"
       x="0"
       y="0" />
    <pattern
       id="EMFhbasepattern-40"
       patternUnits="userSpaceOnUse"
       width="6"
       height="6"
       x="0"
       y="0" />
    <pattern
       id="EMFhbasepattern-08"
       patternUnits="userSpaceOnUse"
       width="6"
       height="6"
       x="0"
       y="0" />
    <pattern
       id="EMFhbasepattern-04"
       patternUnits="userSpaceOnUse"
       width="6"
       height="6"
       x="0"
       y="0" />
    <pattern
       id="EMFhbasepattern-014"
       patternUnits="userSpaceOnUse"
       width="6"
       height="6"
       x="0"
       y="0" />
    <pattern
       id="EMFhbasepattern-27"
       patternUnits="userSpaceOnUse"
       width="6"
       height="6"
       x="0"
       y="0" />
    <pattern
       id="EMFhbasepattern-09"
       patternUnits="userSpaceOnUse"
       width="6"
       height="6"
       x="0"
       y="0" />
    <pattern
       id="EMFhbasepattern-5"
       patternUnits="userSpaceOnUse"
       width="6"
       height="6"
       x="0"
       y="0" />
    <pattern
       id="EMFhbasepattern-018"
       patternUnits="userSpaceOnUse"
       width="6"
       height="6"
       x="0"
       y="0" />
  </defs>
  <sodipodi:namedview
     id="base"
     pagecolor="#ffffff"
     bordercolor="#666666"
     borderopacity="1.0"
     inkscape:pageopacity="0.0"
     inkscape:pageshadow="2"
     inkscape:zoom="8.7304688"
     inkscape:cx="41.063087"
     inkscape:cy="47.305593"
     inkscape:document-units="px"
     inkscape:current-layer="layer1"
     showgrid="false"
     units="px"
     inkscape:window-width="958"
     inkscape:window-height="1041"
     inkscape:window-x="953"
     inkscape:window-y="0"
     inkscape:window-maximized="0"
     inkscape:pagecheckerboard="true"
     inkscape:showpageshadow="false"
     inkscape:object-paths="true"
     inkscape:snap-intersection-paths="true"
     inkscape:snap-smooth-nodes="true"
     inkscape:snap-midpoints="true"
     showguides="true"
     inkscape:snap-bbox="true"
     inkscape:bbox-nodes="true"
     inkscape:snap-nodes="false"
     inkscape:snap-global="true"
     inkscape:snap-others="false">
    <inkscape:grid
       type="xygrid"
       id="grid1378" />
    <sodipodi:guide
       position="0.97013831,21.607643"
       orientation="78.000048,0"
       id="guide1380"
       inkscape:locked="false" />
    <sodipodi:guide
       position="0.97013831,0.97013129"
       orientation="0,78.000005"
       id="guide1382"
       inkscape:locked="false" />
    <sodipodi:guide
       position="21.607639,0.97013129"
       orientation="-78.000048,0"
       id="guide1384"
       inkscape:locked="false" />
    <sodipodi:guide
       position="21.607639,21.607643"
       orientation="0,-78.000005"
       id="guide1386"
       inkscape:locked="false" />
  </sodipodi:namedview>
  <metadata
     id="metadata828">
    <rdf:RDF>
      <cc:Work
         rdf:about="">
        <dc:format>image/svg+xml</dc:format>
        <dc:type
           rdf:resource="http://purl.org/dc/dcmitype/StillImage" />
      </cc:Work>
    </rdf:RDF>
  </metadata>
  <g
     inkscape:label="Icon"
     inkscape:groupmode="layer"
     id="layer1"
     transform="translate(0,-274.42223)">
    <g
       id="g74071"
       style="display:inline;stroke-width:0.794872"
       transform="matrix(1.2580642,0,0,1.2580642,-75.174814,-40.002484)">
      <g
         id="g3421"
         style="display:inline;stroke-width:0.794872">
        <path
           style="color:#000000;fill:#cccccc;stroke-width:0.794872;stroke-linecap:round;stroke-linejoin:round;-inkscape-stroke:none"
           d="m 68.771484,256.39258 -2.951821,1.33398 c -0.12001,0.0521 -0.183927,0.18409 -0.150391,0.31055 l 0.394531,1.42803 c 0.108933,0.41677 0.48916,0.70899 0.919922,0.70899 h 3.489581 c 0.430763,0 0.810987,-0.29222 0.919922,-0.70899 l 0.394531,-1.42803 c 0.0328,-0.12272 -0.02622,-0.25143 -0.140625,-0.30664 l -2.654947,-1.33203 c -0.06918,-0.0341 -0.149775,-0.0362 -0.220703,-0.006 z"
           id="path562303"
           sodipodi:nodetypes="ccccsscccccc" />
        <path
           id="path607953"
           style="fill:#8f8f8f;fill-opacity:1;stroke-width:3.00424;stroke-linecap:round;stroke-linejoin:round"
           d="m 255.75977,-80.699219 c -2.57972,0 -4.70118,1.717908 -4.70118,4.297624 v 0.566406 c 0.51225,0.276422 1.09548,0.431641 1.70508,0.431641 h 13.9961 c 0.60962,0 1.19282,-0.155208 1.70507,-0.431641 v -0.566406 c 0,-2.579716 -2.1234,-4.297624 -4.70312,-4.297624 z"
           transform="matrix(0.26458334,0,0,0.26458334,0,280.06666)"
           sodipodi:nodetypes="sscsscsss" />
        <path
           id="path565712"
           style="color:#000000;fill:#8f8f8f;fill-opacity:1;stroke-width:3.00424;stroke-linecap:round;stroke-linejoin:round;-inkscape-stroke:none"
           d="m 248.19847,-83.261719 0.69141,2.585938 c 2.42015,0.287473 5.51366,0.654297 10.87184,0.654297 5.35699,0 8.33965,-0.366843 10.75983,-0.654297 l 0.6914,-2.585938 z"
           transform="matrix(0.26458334,0,0,0.26458334,0,280.06666)"
           sodipodi:nodetypes="ccsccc" />
        <path
           style="color:#000000;fill:#3a4d5c;stroke-width:0.794872;stroke-linecap:round;stroke-linejoin:round;-inkscape-stroke:none"
           d="m 69.787109,259.69336 a 0.26460996,0.26460996 0 0 0 -0.265625,0.26562 v 1.0586 a 0.26460996,0.26460996 0 0 0 0.265625,0.26367 h 2.410157 l 1.910156,3.30859 a 0.26460996,0.26460996 0 0 0 0.228515,0.13086 h 1.222657 a 0.26460996,0.26460996 0 0 0 0.228515,-0.39648 l -2.332031,-4.03906 c -0.210776,-0.36508 -0.601887,-0.5918 -1.023437,-0.5918 z"
           id="path491658" />
        <path
           id="path610031"
           style="color:#000000;fill:#143441;fill-opacity:1;stroke-width:3.00424;stroke-linecap:round;stroke-linejoin:round;-inkscape-stroke:none"
           d="m 263.76172,-77.001953 a 1.0001006,1.0001006 0 0 0 -1.00391,1.003906 v 4.001953 A 1.0001006,1.0001006 0 0 0 263.76172,-71 h 4.70312 v -4.998047 c 0,-0.344635 -0.0376,-0.679561 -0.10937,-1.003906 z"
           transform="matrix(0.26458334,0,0,0.26458334,0,280.06666)" />
        <path
           style="color:#000000;fill:#3a4d5c;fill-opacity:1;stroke-width:0.794872;stroke-linecap:round;stroke-linejoin:round;-inkscape-stroke:none"
           d="m 65.023437,259.69336 c -0.421549,0 -0.810708,0.22672 -1.021484,0.5918 l -2.332031,4.03906 a 0.26460996,0.26460996 0 0 0 0.228515,0.39648 h 1.222657 a 0.26460996,0.26460996 0 0 0 0.228515,-0.13086 l 1.910157,-3.30859 h 2.410156 a 0.26460996,0.26460996 0 0 0 0.265625,-0.26367 v -1.0586 a 0.26460996,0.26460996 0 0 0 -0.265625,-0.26562 z"
           id="path479595" />
        <path
           id="path608074"
           style="color:#000000;fill:#143441;fill-opacity:1;stroke-width:3.00424;stroke-linecap:round;stroke-linejoin:round;-inkscape-stroke:none"
           d="m 251.16797,-77.001953 c -0.0718,0.324345 -0.10938,0.659271 -0.10938,1.003906 V -71 h 4.70118 a 1.0001006,1.0001006 0 0 0 1.0039,-0.996094 v -4.001953 a 1.0001006,1.0001006 0 0 0 -1.0039,-1.003906 z"
           transform="matrix(0.26458334,0,0,0.26458334,0,280.06666)" />
        <path
           style="color:#000000;fill:#ececec;stroke-width:0.794869;stroke-linecap:round;stroke-linejoin:round;-inkscape-stroke:none"
           d="m 67.708769,259.23397 c -0.419272,0 -0.76387,0.34459 -0.76387,0.76386 v 1.52962 c 3e-6,0.7008 0.572949,1.27375 1.273744,1.27375 h 1.019746 c 0.700794,0 1.273741,-0.57295 1.273743,-1.27375 v -1.52962 c 0,-0.41927 -0.344597,-0.76386 -0.76387,-0.76386 z"
           id="path562317" />
        <path
           id="path70571"
           style="color:#000000;fill:#143441;fill-opacity:1;stroke-width:3.00424;stroke-linecap:round;stroke-linejoin:round;-inkscape-stroke:none"
           d="m 280.76172,-99.996094 v 2 h 6.00195 v -2 z"
           transform="matrix(0.26458334,0,0,0.26458334,0,280.06666)" />
        <path
           style="color:#000000;fill:#ececec;stroke-width:0.794872;stroke-linecap:round;stroke-linejoin:round;-inkscape-stroke:none"
           d="m 74.307804,253.2046 c -0.264376,0 -0.483999,0.21963 -0.483999,0.484 v 1.93422 a 0.24196468,0.24196468 0 0 0 0.241106,0.24288 h 0.968 a 0.24196468,0.24196468 0 0 0 0.242893,-0.24288 v -1.93422 c 0,-0.26437 -0.219624,-0.484 -0.484,-0.484 z"
           id="path562327" />
        <path
           style="color:#000000;fill:#3a4d5c;stroke-width:0.794872;stroke-linecap:round;stroke-linejoin:round;-inkscape-stroke:none"
           d="m 72.775868,257.518 2.543423,-0.4077 c 0.0032,-5.7e-4 0.0062,-9.6e-4 0.0094,-0.002 0.405844,-0.0811 0.701312,-0.44084 0.701312,-0.85466 v -0.50682 c 0,-0.41675 -0.34253,-0.75929 -0.759287,-0.75929 l -4.054552,1.4e-4 z"
           id="path448227"
           sodipodi:nodetypes="cccssccc" />
        <path
           id="path73393"
           style="color:#000000;fill:#143441;fill-opacity:1;stroke-width:3.00424;stroke-linecap:round;stroke-linejoin:round;-inkscape-stroke:none"
           d="m 236.75977,-99.996094 v 2 h 6 v -2 z"
           transform="matrix(0.26458334,0,0,0.26458334,0,280.06666)" />
        <path
           style="color:#000000;fill:#ececec;stroke-width:0.794871;stroke-linecap:round;stroke-linejoin:round;-inkscape-stroke:none"
           d="m 62.661991,253.18682 c -0.267911,0 -0.490471,0.22256 -0.490471,0.49046 v 1.96008 a 0.24519972,0.24519972 0 0 0 0.246141,0.24613 h 0.980941 a 0.24519972,0.24519972 0 0 0 0.244331,-0.24613 v -1.96008 c 0,-0.2679 -0.22256,-0.49046 -0.490471,-0.49046 z"
           id="path562339" />
        <path
           style="color:#000000;fill:#3a4d5c;fill-opacity:1;stroke-width:0.794868;stroke-linecap:round;stroke-linejoin:round;-inkscape-stroke:none"
           d="m 65.371745,254.99958 -3.192415,-8e-5 c -0.412892,0 -0.752245,0.33935 -0.752246,0.75224 v 0.50212 c 0,0.40999 0.290876,0.76637 0.692956,0.84673 0.0037,7.1e-4 0.0074,9.5e-4 0.01112,0.002 l 2.519839,0.40391 z"
           id="path429856"
           sodipodi:nodetypes="ccsscccc" />
        <path
           style="color:#000000;fill:#a7e3fa;stroke-width:0.42062;stroke-linecap:round;stroke-linejoin:round;-inkscape-stroke:none"
           d="m 69.257559,261.01721 c 2e-6,0.29226 -0.236915,0.52917 -0.529167,0.52917 -0.292252,0 -0.529168,-0.23691 -0.529167,-0.52917 -10e-7,-0.29225 0.236915,-0.52917 0.529167,-0.52917 0.292252,0 0.529169,0.23692 0.529167,0.52917 z"
           id="path562345" />
        <path
           style="color:#000000;fill:#3a4d5c;stroke-width:0.794872;stroke-linecap:round;stroke-linejoin:round;-inkscape-stroke:none"
           d="m 68.728516,260.75195 c 0.149258,0 0.263673,0.11637 0.263671,0.26563 2e-6,0.14927 -0.114407,0.26367 -0.263671,0.26367 -0.149265,0 -0.265626,-0.1144 -0.265625,-0.26367 -10e-7,-0.14926 0.116366,-0.26563 0.265625,-0.26563 z"
           id="path562447" />
        <path
           style="color:#000000;fill:#3a4d5c;stroke-width:0.794872;stroke-linecap:round;stroke-linejoin:round;-inkscape-stroke:none"
           d="m 68.728516,260.22266 c -0.435245,0 -0.792971,0.35968 -0.792969,0.79492 -2e-6,0.43525 0.35773,0.79297 0.792969,0.79297 0.435238,0 0.792971,-0.35772 0.792968,-0.79297 3e-6,-0.43524 -0.357723,-0.79492 -0.792968,-0.79492 z"
           id="path562347" />
        <path
           style="color:#000000;fill:#000000;stroke-width:0.794872;stroke-linecap:round;stroke-linejoin:round;-inkscape-stroke:none"
           d="m 65.832031,256.60742 a 0.2645835,0.2645835 0 0 0 -0.294922,0.23242 0.2645835,0.2645835 0 0 0 0.232422,0.29297 c 0.664366,0.0793 1.407681,0.19727 2.958985,0.19727 1.552223,0 2.294701,-0.11796 2.958984,-0.19727 a 0.2645835,0.2645835 0 0 0 0.232422,-0.29297 0.2645835,0.2645835 0 0 0 -0.294922,-0.23242 c -0.679459,0.0811 -1.370645,0.19336 -2.896484,0.19336 -1.524902,0 -2.216983,-0.11225 -2.896485,-0.19336 z"
           id="path37611" />
        <path
           style="color:#000000;fill:#ececec;stroke-width:0.794872;stroke-linecap:round;stroke-linejoin:round;-inkscape-stroke:none"
           d="m 68.72848,253.69673 c -0.904626,0 -1.351068,0.15481 -1.73847,0.31986 -0.387401,0.16504 -0.710197,0.32951 -1.54656,0.41768 -0.416194,0.0438 -0.793976,0.35683 -0.793976,0.7921 v 2.03761 c 0,0.43468 0.372253,0.75516 0.792094,0.8015 0.632898,0.0698 1.561046,0.21825 3.286912,0.21825 1.725863,0 2.65399,-0.14836 3.286912,-0.21825 0.419842,-0.0463 0.790214,-0.36682 0.790213,-0.8015 v -2.03761 c 0,-0.43527 -0.375922,-0.7482 -0.792095,-0.7921 -0.836363,-0.0881 -1.159159,-0.25264 -1.54656,-0.41768 -0.387402,-0.16505 -0.833844,-0.31985 -1.73847,-0.31986 z"
           id="path562363" />
      </g>
      <path
         id="rect536"
         style="color:#000000;fill:#000000;stroke-width:0.794872;stroke-linecap:round;stroke-linejoin:round;-inkscape-stroke:none"
         d="m 71.856598,258.17758 c 0.100608,-0.0121 0.195942,-0.0233 0.28422,-0.0331 0.357241,-0.0394 0.679669,-0.27008 0.784448,-0.60048 l 2.478905,-0.39719 c 0.423846,-0.0847 0.732772,-0.46079 0.732772,-0.89297 v -0.52916 c 0,-0.43524 -0.35799,-0.79272 -0.793234,-0.79272 v -0.79323 h 1.3224 c 0.146127,-5.7e-4 0.264124,-0.11949 0.26355,-0.26562 -5.67e-4,-0.14532 -0.118231,-0.26298 -0.26355,-0.26355 h -1.3224 c 0,-0.28911 -0.240048,-0.52917 -0.529166,-0.52917 h -0.529167 c -0.289119,0 -0.529684,0.24006 -0.529684,0.52917 h -1.32395 c -0.145319,5.7e-4 -0.262983,0.11823 -0.26355,0.26355 -5.74e-4,0.14613 0.117423,0.26505 0.26355,0.26562 h 1.32395 v 0.79323 H 72.91285 c -0.117057,-0.31004 -0.432465,-0.52052 -0.774113,-0.55656 -0.868219,-0.0915 -1.203429,-0.26223 -1.605587,-0.43356 -0.402157,-0.17133 -0.865459,-0.33227 -1.804541,-0.33228 -0.939083,0 -1.402383,0.16095 -1.804541,0.33228 -0.402158,0.17133 -0.737368,0.34203 -1.605587,0.43356 -0.341645,0.036 -0.658084,0.24654 -0.775663,0.55656 h -0.841809 v -0.79323 h 1.3224 c 0.146935,5.8e-4 0.266194,-0.11869 0.265617,-0.26562 -5.7e-4,-0.14613 -0.119491,-0.26412 -0.265617,-0.26355 h -1.3224 c 0,-0.28911 -0.240048,-0.52917 -0.529167,-0.52917 h -0.529166 c -0.289119,0 -0.529167,0.24006 -0.529167,0.52917 h -1.3224 c -0.146126,-5.7e-4 -0.265047,0.11742 -0.265617,0.26355 -5.77e-4,0.14693 0.118682,0.2662 0.265617,0.26562 h 1.3224 v 0.79323 c -0.435244,0 -0.793232,0.35748 -0.793233,0.79272 v 0.52968 c 0,0.43218 0.306858,0.80774 0.730704,0.89245 l 2.478932,0.39771 c 0.10541,0.33014 0.429444,0.56055 0.786515,0.59996 0.08814,0.01 0.283704,0.0331 0.283704,0.0331 l 0.423744,1.51567 h -1.000456 c -0.42155,0 -0.810866,0.22661 -1.021643,0.59169 l -2.25516,3.90674 h -0.42633 c -0.146935,-5.8e-4 -0.266194,0.11869 -0.265617,0.26562 5.7e-4,0.14613 0.119491,0.26412 0.265617,0.26355 h 2.64635 c 0.145521,-2.8e-4 0.263498,-0.11803 0.264066,-0.26355 5.74e-4,-0.14633 -0.117737,-0.26533 -0.264066,-0.26562 h -0.387057 l 1.680001,-2.91042 h 1.617473 v 0.26562 c 3e-6,0.7275 0.594909,1.3224 1.322399,1.3224 h 0.26355 v 0.26562 c 5.7e-4,0.14613 0.119491,0.26412 0.265617,0.26355 0.145319,-5.7e-4 0.262983,-0.11823 0.26355,-0.26355 v -0.26562 h 0.265617 c 0.72749,0 1.322398,-0.5949 1.3224,-1.3224 v -0.26562 h 1.616955 l 1.680518,2.91042 h -0.387573 c -0.146127,5.7e-4 -0.264124,0.11949 -0.26355,0.26562 5.67e-4,0.14532 0.118231,0.26298 0.26355,0.26355 h 2.646867 c 0.145319,-5.7e-4 0.262982,-0.11823 0.263549,-0.26355 5.74e-4,-0.14613 -0.117422,-0.26505 -0.263549,-0.26562 h -0.426331 l -2.255676,-3.90674 c -0.210776,-0.36508 -0.601644,-0.59169 -1.023194,-0.59169 H 71.43285 Z m -9.213909,-4.56822 h 0.529166 v 1.3224 h -0.529166 z m 11.6427,0 h 0.529167 v 1.3224 h -0.529167 z m -9.261967,1.58595 c 0.0014,-0.13204 0.139888,-0.2707 0.3514,-0.29301 0.926278,-0.0977 1.37136,-0.31053 1.755965,-0.47439 0.384605,-0.16385 0.71448,-0.28938 1.597835,-0.28938 0.883355,0 1.212714,0.12553 1.597319,0.28938 0.384604,0.16386 0.829688,0.37674 1.755965,0.47439 0.212637,0.0224 0.349849,0.16242 0.349849,0.29508 v 2.11511 c 0,0.13327 -0.140398,0.28355 -0.347782,0.30644 -0.681558,0.0752 -1.593725,0.22273 -3.355351,0.22273 -1.761623,0 -2.673767,-0.14751 -3.355351,-0.22273 -0.200498,-0.0221 -0.339769,-0.16321 -0.348816,-0.293 z m -2.9099,0.26562 h 1.32395 v 1.37304 l -1.281059,-0.20516 c -0.179573,-0.0359 -0.306958,-0.19148 -0.306958,-0.37465 v -0.52968 c 0,-0.14926 0.114812,-0.26355 0.264067,-0.26355 z m 1.853117,0 h 0.527616 v 1.54254 l -0.527616,-0.0847 z m 7.671366,0 c -0.145521,2.8e-4 -0.263498,0.11803 -0.264066,0.26355 -5.68e-4,0.14632 0.117741,0.26532 0.264066,0.26561 0.146931,5.8e-4 0.266188,-0.11868 0.265617,-0.26561 -5.7e-4,-0.14613 -0.119491,-0.26412 -0.265617,-0.26355 z m 1.322917,0 h 0.529167 v 1.45779 l -0.529167,0.0847 z m 1.05885,0 h 1.32395 c 0.149257,0 0.26355,0.11429 0.26355,0.26355 v 0.52968 c 0,0.18317 -0.126868,0.33876 -0.306441,0.37465 l -1.281059,0.20516 z m -4.498433,0.001 c -0.145319,5.7e-4 -0.262983,0.11823 -0.26355,0.26355 -5.74e-4,0.14613 0.117423,0.26505 0.26355,0.26562 0.146935,5.7e-4 0.266193,-0.11869 0.265616,-0.26562 -5.7e-4,-0.14613 -0.119491,-0.26412 -0.265616,-0.26355 z m 1.058333,0 c -0.145319,5.7e-4 -0.262983,0.11823 -0.26355,0.26355 -5.74e-4,0.14613 0.117423,0.26505 0.26355,0.26562 0.146935,5.8e-4 0.266194,-0.11869 0.265617,-0.26562 -5.7e-4,-0.14613 -0.119491,-0.26412 -0.265617,-0.26355 z m -5.042586,1.37769 c -0.01666,0.14512 0.08744,0.27627 0.232544,0.29301 0.664365,0.0793 1.40769,0.1974 2.958992,0.1974 1.552222,0 2.29471,-0.11809 2.958993,-0.1974 0.145107,-0.0167 0.249199,-0.14789 0.232544,-0.29301 -0.01697,-0.1458 -0.149384,-0.24992 -0.295073,-0.23202 -0.679458,0.0811 -1.370626,0.19327 -2.896464,0.19327 -1.5249,0 -2.216963,-0.11216 -2.896464,-0.19327 -0.171379,-0.0133 -0.274843,0.0952 -0.295072,0.23202 z m 5.451347,2.54138 c -0.06762,0.25235 -0.226602,0.31213 -0.454758,0.31213 -0.110213,-0.30602 -0.404566,-0.5271 -0.746725,-0.5271 h -2.117183 c -0.342149,0 -0.635988,0.2211 -0.746208,0.5271 -0.280336,-0.003 -0.402269,-0.11628 -0.454747,-0.31213 v -5.2e-4 -5.1e-4 -5.2e-4 -5.2e-4 l -0.303341,-1.13629 c 0.605724,0.0647 1.412239,0.12867 2.563151,0.12867 1.150613,0 1.956962,-0.0635 2.562634,-0.12815 z m -3.318661,0.3122 h 2.117183 c 0.149257,0 0.264067,0.11636 0.264067,0.26561 v 1.58802 c -10e-7,0.44151 -0.351725,0.79323 -0.793233,0.79323 h -1.058334 c -0.441508,0 -0.793231,-0.35172 -0.793233,-0.79323 v -1.58802 c 0,-0.14925 0.114294,-0.26561 0.26355,-0.26561 z m -0.792716,0.52968 v 0.52917 h -1.61799 l -0.304374,-0.52555 c 0.640502,-0.009 1.281672,-0.004 1.922364,-0.004 z m 1.830896,0 c -0.425992,0.011 -0.772565,0.36634 -0.772563,0.79478 -2e-6,0.43525 0.357995,0.79272 0.793233,0.79272 0.435238,0 0.79272,-0.35747 0.792717,-0.79272 3e-6,-0.43524 -0.357472,-0.79478 -0.792717,-0.79478 -0.0068,0 -0.01391,-1.7e-4 -0.02067,0 z m 1.872237,0 c 0.636676,0.003 1.290183,-0.006 1.920816,0.004 l -0.303341,0.52555 h -1.617472 z m -5.779493,0.79478 -1.833996,3.17397 h -0.609265 c 0.713855,-1.23012 1.422281,-2.47857 2.1394,-3.70057 z m 8.159192,-0.52658 c 0.716992,1.22344 1.428663,2.46781 2.13992,3.70057 h -0.609781 l -1.83348,-3.17397 z m -4.245219,0.26097 c 0.0046,-2.3e-4 0.0093,0 0.01395,0 0.149258,0 0.263552,0.11635 0.26355,0.26561 2e-6,0.14927 -0.114286,0.26355 -0.26355,0.26355 -0.149265,0 -0.265618,-0.11428 -0.265617,-0.26355 -10e-7,-0.14459 0.10914,-0.25865 0.251664,-0.26561 z"
         sodipodi:nodetypes="ccccsscccsccssccscccccssscccccsccssccscccssccsccscccsccsccccssccsccssccccsccscccscccccccccccccsssscsscssccscccsssccccccscscccccccssscccssssssssssccscccsccccsscccccccsccsssssssssccccccssscccccccccccccccscsssssss" />
    </g>
  </g>
</svg>
